<?xml version="1.0" standalone="no"?>
<!DOCTYPE svg PUBLIC "-//W3C//DTD SVG 20010904//EN"
 "http://www.w3.org/TR/2001/REC-SVG-20010904/DTD/svg10.dtd">
<svg version="1.0" xmlns="http://www.w3.org/2000/svg"
 width="361.000000pt" height="287.000000pt" viewBox="0 0 361.000000 287.000000"
 preserveAspectRatio="xMidYMid meet">

<g transform="translate(0.000000,287.000000) scale(0.100000,-0.100000)"
fill="#000000" stroke="none">
<path d="M0 2464 l0 -405 67 2 c44 2 68 -2 71 -9 6 -19 22 -14 22 8 0 24 18
27 27 4 5 -13 9 -12 29 7 17 16 24 18 24 8 0 -8 10 6 23 31 72 146 223 300
364 373 145 75 243 100 398 101 97 0 149 -4 205 -18 189 -48 340 -141 469
-291 19 -22 39 -39 44 -37 5 1 5 -2 2 -8 -4 -6 1 -20 11 -31 14 -16 31 -19
104 -19 146 0 254 -27 387 -97 46 -24 88 -42 95 -41 7 2 12 -4 13 -12 0 -8 6
-16 13 -16 6 -1 17 -2 23 -3 5 0 8 -5 4 -10 -3 -5 0 -13 6 -17 8 -5 9 -3 4 6
-6 10 -4 12 8 7 28 -11 19 2 -14 18 -17 9 -28 22 -26 29 4 9 -3 12 -18 10 -13
-1 -26 4 -29 12 -4 11 -1 12 13 5 12 -7 250 -11 645 -11 l626 0 0 405 0 405
-1805 0 -1805 0 0 -406z m2220 -324 c0 -5 -4 -10 -9 -10 -6 0 -13 5 -16 10 -3
6 1 10 9 10 9 0 16 -4 16 -10z m50 -14 c0 -3 -4 -8 -10 -11 -5 -3 -10 -1 -10
4 0 6 5 11 10 11 6 0 10 -2 10 -4z m35 -56 c3 -6 -1 -7 -9 -4 -18 7 -21 14 -7
14 6 0 13 -4 16 -10z"/>
<path d="M213 2025 c-7 -8 -9 -16 -4 -19 5 -3 12 1 15 10 8 22 4 25 -11 9z"/>
<path d="M2426 2015 c10 -8 33 -14 49 -15 23 0 26 3 15 10 -8 5 -22 7 -32 4
-9 -2 -19 0 -23 6 -3 5 -11 10 -18 10 -6 0 -2 -7 9 -15z"/>
<path d="M155 2010 c4 -6 11 -8 16 -5 14 9 11 15 -7 15 -8 0 -12 -5 -9 -10z"/>
<path d="M2427 1957 c3 -4 8 -6 11 -3 3 3 10 1 17 -4 8 -7 12 -6 12 3 0 7 -11
13 -23 13 -12 0 -20 -4 -17 -9z"/>
</g>
</svg>
